<?xml version="1.0" encoding="UTF-8" standalone="no"?>
<svg
   width="400.03101"
   height="467.73199"
   viewBox="0 0 400.03101 467.73199"
   version="1.1"
   id="svg3"
   xmlns="http://www.w3.org/2000/svg"
   xmlns:svg="http://www.w3.org/2000/svg">
  <defs
     id="defs3" />
  <path
     d="m 146.304,1.8090047 c -1.757,1.079 -3.92,3.068 -4.807,4.42 C 140.288,8.0760047 121,80.657005 121,83.364005 c 0,0.276 15.075,0.502 33.5,0.502 H 188 v 26.999995 27 H 99.886001 c -87.896,0 -88.123,0.005 -91.8820004,2.118 -2.073,1.165 -4.721,3.813 -5.886,5.886 C 0.00500058,149.63 5.7964257e-7,149.833 5.7964257e-7,239.018 c 0,85.079 0.0890000003574,89.545 1.85100002035743,92.831 1.019,1.899 3.076,4.367 4.573,5.485 2.649,1.978 4.2080004,2.039 58.6490004,2.306 L 121,339.915 V 289.89 239.866 h 78.378 78.378 l 0.735,-101.25 C 278.896,82.929005 279.062,31.291005 278.86,23.866005 278.464,9.2460047 277.588,6.4350047 272.166,2.3660047 269.578,0.42500472 267.733,0.35800472 209.5,0.10700472 c -58.097,-0.251 -60.101,-0.197 -63.196,1.70199998"
     stroke="none"
     fill="#4c94e4"
     fill-rule="evenodd"
     id="path2"
     style="fill:#3e63dd;fill-opacity:1" />
  <path
     d="m 278.667,138.533 c -0.367,0.366 -0.667,23.316 -0.667,51 v 50.333 h -78.517 -78.518 l 0.268,108.75 c 0.254,103.456 0.356,108.896 2.101,111.75 1.009,1.65 3.034,3.9 4.5,5 2.588,1.941 4.433,2.008 62.666,2.259 58.097,0.251 60.101,0.197 63.196,-1.702 1.757,-1.079 3.92,-3.068 4.807,-4.42 1.209,-1.847 20.497,-74.428 20.497,-77.135 0,-0.276 -15.075,-0.502 -33.5,-0.502 H 212 v -22 -22 h 88.032 c 96.746,0 92.501,0.268 97.069,-6.137 l 2.399,-3.363 0.266,-90.336 0.265,-90.336 -2.133,-3.796 c -1.174,-2.088 -3.829,-4.749 -5.902,-5.914 -3.71,-2.085 -4.611,-2.118 -58.215,-2.118 -29.946,0 -54.748,0.3 -55.114,0.667"
     stroke="none"
     fill="#f3bc4d"
     fill-rule="evenodd"
     id="path3"
     style="display:inline" />
  <rect
     style="opacity:1;fill:#f3bc4d;fill-opacity:1;stroke-width:0.965"
     id="rect3"
     width="20"
     height="20"
     x="52.768837"
     y="228.61624" />
  <rect
     style="fill:#3e63dd;fill-opacity:1;stroke-width:0.965"
     id="rect3-7"
     width="20"
     height="20"
     x="330.60724"
     y="229.79355" />
</svg>
