<?xml version="1.0" encoding="UTF-8" standalone="no"?>
<svg
   width="1200.0001"
   height="628"
   viewBox="0 0 1200.0001 627.99999"
   version="1.1"
   id="svg3"
   sodipodi:docname="logo-dark.svg"
   xmlns:inkscape="http://www.inkscape.org/namespaces/inkscape"
   xmlns:sodipodi="http://sodipodi.sourceforge.net/DTD/sodipodi-0.dtd"
   xmlns="http://www.w3.org/2000/svg"
   xmlns:svg="http://www.w3.org/2000/svg">
  <sodipodi:namedview
     id="namedview1"
     pagecolor="#ffffff"
     bordercolor="#000000"
     borderopacity="0.25"
     inkscape:showpageshadow="2"
     inkscape:pageopacity="0.0"
     inkscape:pagecheckerboard="0"
     inkscape:deskcolor="#d1d1d1">
    <inkscape:page
       x="0"
       y="0"
       width="1200.0001"
       height="628"
       id="page2"
       margin="0"
       bleed="0" />
  </sodipodi:namedview>
  <defs
     id="defs3" />
  <rect
     style="opacity:0;fill:#ffff59;fill-opacity:1;stroke-width:17.0763"
     id="rect2"
     width="1200"
     height="628"
     x="-4.7999411e-06"
     y="-2.7343299e-06"
     inkscape:export-filename="og_image.svg"
     inkscape:export-xdpi="96"
     inkscape:export-ydpi="96" />
  <g
     id="g2"
     transform="translate(-202.29081,-175.08062)">
    <path
       d="m 748.5793,257.02362 c -1.757,1.079 -3.92,3.068 -4.807,4.42 -1.209,1.847 -20.497,74.428 -20.497,77.135 0,0.276 15.075,0.502 33.5,0.502 h 33.5 v 26.99999 27 h -88.114 c -87.896,0 -88.123,0.005 -91.882,2.118 -2.073,1.165 -4.721,3.813 -5.886,5.886 -2.113,3.76 -2.118,3.963 -2.118,93.148 0,85.079 0.089,89.545 1.851,92.831 1.019,1.899 3.076,4.367 4.573,5.485 2.649,1.978 4.208,2.039 58.649,2.306 l 55.927,0.275 v -50.025 -50.024 h 78.378 78.378 l 0.735,-101.25 c 0.405,-55.68699 0.571,-107.32499 0.369,-114.74999 -0.396,-14.62 -1.272,-17.431 -6.694,-21.5 -2.588,-1.941 -4.433,-2.008 -62.666,-2.259 -58.097,-0.251 -60.101,-0.197 -63.196,1.702"
       stroke="none"
       fill="#4c94e4"
       fill-rule="evenodd"
       id="path2"
       style="fill:#3e63dd;fill-opacity:1" />
    <path
       d="m 880.9423,393.74761 c -0.367,0.366 -0.667,23.316 -0.667,51 v 50.333 h -78.517 -78.518 l 0.268,108.75 c 0.254,103.456 0.356,108.896 2.101,111.75 1.009,1.65 3.034,3.9 4.5,5 2.588,1.941 4.433,2.008 62.666,2.259 58.097,0.251 60.101,0.197 63.196,-1.702 1.757,-1.079 3.92,-3.068 4.807,-4.42 1.209,-1.847 20.497,-74.428 20.497,-77.135 0,-0.276 -15.075,-0.502 -33.5,-0.502 h -33.5 v -22 -22 h 88.032 c 96.746,0 92.501,0.268 97.069,-6.137 l 2.399,-3.363 0.266,-90.336 0.265,-90.336 -2.133,-3.796 c -1.174,-2.088 -3.829,-4.749 -5.902,-5.914 -3.71,-2.085 -4.611,-2.118 -58.215,-2.118 -29.946,0 -54.748,0.3 -55.114,0.667"
       stroke="none"
       fill="#f3bc4d"
       fill-rule="evenodd"
       id="path3"
       style="display:inline" />
    <rect
       style="opacity:1;fill:#f3bc4d;fill-opacity:1;stroke-width:0.965"
       id="rect3"
       width="20"
       height="20"
       x="655.04413"
       y="483.83084" />
    <rect
       style="fill:#3e63dd;fill-opacity:1;stroke-width:0.965"
       id="rect3-7"
       width="20"
       height="20"
       x="932.88257"
       y="485.00815" />
  </g>
</svg>
